<svg width="128" height="128" viewBox="0 0 128 128" fill="none" xmlns="http://www.w3.org/2000/svg">
  <defs>
    <linearGradient id="bg" x1="18" y1="12" x2="110" y2="118" gradientUnits="userSpaceOnUse">
      <stop stop-color="#0F3F6D"/>
      <stop offset="1" stop-color="#0A223D"/>
    </linearGradient>
    <linearGradient id="shield" x1="64" y1="28" x2="64" y2="102" gradientUnits="userSpaceOnUse">
      <stop stop-color="#59C4F0"/>
      <stop offset="1" stop-color="#2E89C7"/>
    </linearGradient>
  </defs>
  <rect x="8" y="8" width="112" height="112" rx="26" fill="url(#bg)"/>
  <path d="M64 24C52.5 31.2 40.8 33.5 32 35.1V58.8C32 77.7 42.5 92.7 64 103C85.5 92.7 96 77.7 96 58.8V35.1C87.2 33.5 75.5 31.2 64 24Z" fill="#07182D" stroke="url(#shield)" stroke-width="4"/>
  <path d="M42 64H51L59 50L68 77L76 60H86" stroke="#8EE2FF" stroke-width="5" stroke-linecap="round" stroke-linejoin="round"/>
  <circle cx="51" cy="64" r="3" fill="#8EE2FF"/>
  <circle cx="68" cy="77" r="3" fill="#8EE2FF"/>
  <circle cx="86" cy="60" r="3" fill="#8EE2FF"/>
  <circle cx="92" cy="35" r="12" fill="#FF4A5F"/>
  <path d="M92 29V37" stroke="white" stroke-width="3.2" stroke-linecap="round"/>
  <circle cx="92" cy="41.5" r="1.8" fill="white"/>
</svg>
